<?xml version="1.0" encoding="UTF-8" standalone="no"?>
<!-- Created with Inkscape (http://www.inkscape.org/) -->

<svg
   width="192.92244mm"
   height="79.627602mm"
   viewBox="0 0 192.92244 79.627602"
   version="1.1"
   id="svg5"
   xml:space="preserve"
   inkscape:version="1.4.2 (1:1.4.2+202505120737+ebf0e940d0)"
   sodipodi:docname="drawing.svg"
   inkscape:export-filename="logo.svg"
   inkscape:export-xdpi="96"
   inkscape:export-ydpi="96"
   xmlns:inkscape="http://www.inkscape.org/namespaces/inkscape"
   xmlns:sodipodi="http://sodipodi.sourceforge.net/DTD/sodipodi-0.dtd"
   xmlns:xlink="http://www.w3.org/1999/xlink"
   xmlns="http://www.w3.org/2000/svg"
   xmlns:svg="http://www.w3.org/2000/svg"><sodipodi:namedview
     id="namedview7"
     pagecolor="#ffffff"
     bordercolor="#000000"
     borderopacity="0.25"
     inkscape:showpageshadow="2"
     inkscape:pageopacity="0.0"
     inkscape:pagecheckerboard="0"
     inkscape:deskcolor="#d1d1d1"
     inkscape:document-units="mm"
     showgrid="false"
     showguides="true"
     inkscape:zoom="1.0862049"
     inkscape:cx="637.54086"
     inkscape:cy="609.00113"
     inkscape:window-width="1887"
     inkscape:window-height="2091"
     inkscape:window-x="1953"
     inkscape:window-y="32"
     inkscape:window-maximized="0"
     inkscape:current-layer="layer1"><sodipodi:guide
       position="-116.21134,-7.5601781"
       orientation="0,1"
       id="guide24105"
       inkscape:locked="false"
       inkscape:label=""
       inkscape:color="rgb(0,134,229)" /><sodipodi:guide
       position="-32.470822,108.28638"
       orientation="1,0"
       id="guide24107"
       inkscape:locked="false" /><sodipodi:guide
       position="74.769989,80.152221"
       orientation="0,-1"
       id="guide24109"
       inkscape:locked="false" /><sodipodi:guide
       position="52.24426,794.89153"
       orientation="1,0"
       id="guide21"
       inkscape:locked="false" /><sodipodi:guide
       position="52.24426,91.324441"
       orientation="1,0"
       id="guide22"
       inkscape:locked="false" /><inkscape:page
       x="0"
       y="0"
       width="192.92244"
       height="79.627602"
       id="page2"
       margin="0"
       bleed="0" /></sodipodi:namedview><defs
     id="defs2"><inkscape:path-effect
       effect="bspline"
       id="path-effect72"
       is_visible="true"
       lpeversion="1.3"
       weight="33.333333"
       steps="2"
       helper_size="0"
       apply_no_weight="true"
       apply_with_weight="true"
       only_selected="false"
       uniform="false" /><linearGradient
       id="linearGradient43"
       inkscape:collect="always"><stop
         style="stop-color:#d6dac8;stop-opacity:1;"
         offset="0"
         id="stop43" /><stop
         style="stop-color:#b0c1b1;stop-opacity:1;"
         offset="1"
         id="stop44" /></linearGradient><linearGradient
       id="linearGradient41"
       inkscape:collect="always"><stop
         style="stop-color:#e0d7b8;stop-opacity:1;"
         offset="0"
         id="stop41" /><stop
         style="stop-color:#ebd08d;stop-opacity:1;"
         offset="1"
         id="stop42" /></linearGradient><linearGradient
       id="linearGradient39"
       inkscape:collect="always"><stop
         style="stop-color:#e0d7b8;stop-opacity:1;"
         offset="0"
         id="stop39" /><stop
         style="stop-color:#ebd08d;stop-opacity:1;"
         offset="1"
         id="stop40" /></linearGradient><linearGradient
       id="linearGradient37"
       inkscape:collect="always"><stop
         style="stop-color:#e0d7b8;stop-opacity:1;"
         offset="0"
         id="stop37" /><stop
         style="stop-color:#ebd08d;stop-opacity:1;"
         offset="1"
         id="stop38" /></linearGradient><linearGradient
       id="linearGradient31"
       inkscape:collect="always"><stop
         style="stop-color:#d6a99d;stop-opacity:1;"
         offset="0"
         id="stop31" /><stop
         style="stop-color:#d79874;stop-opacity:1;"
         offset="1"
         id="stop32" /></linearGradient><linearGradient
       inkscape:collect="always"
       xlink:href="#linearGradient31"
       id="linearGradient32"
       x1="-6.3625121"
       y1="65.559547"
       x2="18.538488"
       y2="65.559547"
       gradientUnits="userSpaceOnUse" /><linearGradient
       inkscape:collect="always"
       xlink:href="#linearGradient37"
       id="linearGradient38"
       x1="-29.734533"
       y1="100.57133"
       x2="-11.529291"
       y2="100.57133"
       gradientUnits="userSpaceOnUse" /><linearGradient
       inkscape:collect="always"
       xlink:href="#linearGradient39"
       id="linearGradient40"
       x1="-3.0144136"
       y1="100.57133"
       x2="15.190351"
       y2="100.57133"
       gradientUnits="userSpaceOnUse" /><linearGradient
       inkscape:collect="always"
       xlink:href="#linearGradient41"
       id="linearGradient42"
       x1="23.705467"
       y1="100.57133"
       x2="41.910233"
       y2="100.57133"
       gradientUnits="userSpaceOnUse" /><linearGradient
       inkscape:collect="always"
       xlink:href="#linearGradient43"
       id="linearGradient44"
       x1="-3.0144136"
       y1="123.63374"
       x2="15.190351"
       y2="123.63374"
       gradientUnits="userSpaceOnUse" /></defs><g
     inkscape:label="Layer 1"
     inkscape:groupmode="layer"
     id="layer1"
     transform="translate(29.734532,-53.108559)"><g
       id="text24"
       style="font-size:73.6654px;line-height:0.8;letter-spacing:0px;white-space:pre;fill:#3b4248;stroke-width:5.7;stroke-miterlimit:0;paint-order:stroke fill markers"
       transform="matrix(0.33522462,0,0,0.33522462,-140.89894,12.066426)"
       aria-label="3D SCENE&#10;GRAPHS&#10;ARCHIVE"><path
         style="font-weight:bold;font-family:'Ubuntu Sans';-inkscape-font-specification:'Ubuntu Sans'"
         d="m 582.32305,208.82026 q -2.79928,0 -5.67223,-0.51566 -2.79929,-0.44199 -5.15658,-1.10498 -2.28363,-0.66299 -3.46227,-1.25231 l 1.9153,-8.02953 q 1.6943,0.73665 4.64092,1.6943 3.02028,0.95765 7.4402,0.95765 3.60961,0 5.9669,-0.95765 2.35729,-0.95765 3.38861,-2.72562 1.10498,-1.84163 1.10498,-4.19893 0,-3.09394 -1.62064,-4.78825 -1.62064,-1.76797 -4.34626,-2.50462 -2.65195,-0.73665 -5.9669,-0.73665 h -3.46227 v -7.73487 h 4.19893 q 2.28363,0 4.34626,-0.58932 2.13629,-0.66299 3.46227,-2.1363 1.32598,-1.54697 1.32598,-4.27259 0,-2.20997 -1.10498,-3.53594 -1.03132,-1.39965 -2.72562,-2.06263 -1.69431,-0.66299 -3.60961,-0.66299 -3.31494,0 -5.89323,1.03131 -2.57829,0.95765 -4.64092,2.28363 l -3.46227,-7.07188 q 2.13629,-1.39964 5.81956,-2.87295 3.75694,-1.54697 8.47152,-1.54697 5.81957,0 9.50284,1.84163 3.75694,1.84164 5.52491,5.00925 1.76797,3.16761 1.76797,7.21921 0,3.31494 -1.84164,6.18789 -1.84163,2.79929 -4.86192,4.2726 2.65196,0.95765 4.64092,2.72562 2.06264,1.76796 3.16762,4.27259 1.10498,2.50462 1.10498,5.81956 0,4.56726 -2.1363,8.25053 -2.1363,3.6096 -6.55622,5.67223 -4.34626,2.06264 -11.27081,2.06264 z m 45.52516,-0.51566 q -3.09395,0 -7.07188,-0.29466 -3.97793,-0.221 -7.6612,-1.03132 v -49.57681 q 3.68327,-0.73666 7.80853,-1.03132 4.12526,-0.29466 7.21921,-0.29466 8.61885,0 15.10141,2.72562 6.48255,2.72562 10.09216,8.47152 3.6096,5.7459 3.6096,14.88041 0,8.76618 -3.6096,14.58575 -3.53594,5.81957 -10.09216,8.69252 -6.55622,2.87295 -15.39607,2.87295 z m 0.58932,-8.61885 q 9.13451,0 13.55443,-4.64092 4.49359,-4.71459 4.49359,-12.89145 0,-8.47152 -4.34625,-12.96511 -4.2726,-4.49359 -13.40711,-4.49359 -1.84163,0 -3.24127,0.0737 -1.32598,0.0737 -2.28363,0.22099 v 34.47541 q 0.73665,0.0737 1.9153,0.14733 1.25231,0.0737 3.31494,0.0737 z m 69.09811,9.06084 q -6.55622,0 -10.68148,-1.32598 -4.0516,-1.39964 -5.9669,-2.50462 l 2.94662,-8.02953 q 2.06263,1.17865 5.45124,2.20996 3.3886,1.03132 8.25052,1.03132 5.15658,0 7.21921,-1.62064 2.06263,-1.6943 2.06263,-4.49359 0,-2.20996 -1.25231,-3.6096 -1.17865,-1.47331 -3.60961,-2.65196 -2.43095,-1.17864 -6.11422,-2.43096 -3.53594,-1.32597 -6.77722,-3.02028 -3.16761,-1.76797 -5.15658,-4.56725 -1.98896,-2.79929 -1.98896,-7.36654 0,-4.64092 2.20996,-7.95586 2.28362,-3.31495 6.33522,-5.08292 4.12526,-1.84163 9.72383,-1.84163 4.93559,0 8.61886,1.10498 3.75693,1.10498 6.11422,2.43096 l -3.02028,7.95586 q -2.13629,-1.17865 -4.86191,-1.98897 -2.72562,-0.88398 -6.33523,-0.88398 -4.27259,0 -6.40889,1.32598 -2.06263,1.32597 -2.06263,4.19892 0,2.06264 1.25231,3.38861 1.25231,1.32598 3.38861,2.3573 2.1363,0.95765 4.78825,1.9153 5.08291,1.84163 8.47152,3.8306 3.46228,1.98896 5.23025,5.00924 1.84163,2.94662 1.84163,7.8822 0,4.64092 -2.20996,7.95586 -2.20996,3.31495 -6.62989,5.08292 -4.34626,1.6943 -10.82881,1.6943 z m 51.41851,0 q -7.8822,0 -13.48077,-3.09395 -5.59857,-3.09394 -8.54518,-9.06084 -2.94662,-5.9669 -2.94662,-14.43842 0,-6.33522 1.9153,-11.2708 1.98897,-5.00925 5.45124,-8.39786 3.46228,-3.46227 8.1032,-5.23024 4.64092,-1.76797 10.01849,-1.76797 4.27259,0 7.44021,0.73665 3.16761,0.73666 5.15657,1.62064 2.06263,0.88399 2.87295,1.47331 l -2.94661,8.17686 q -2.20996,-1.25231 -5.30391,-2.1363 -3.09395,-0.95765 -7.07188,-0.95765 -4.19893,0 -7.6612,1.9153 -3.38861,1.84164 -5.45124,5.7459 -2.06263,3.90427 -2.06263,9.94483 0,5.15658 1.54697,9.20818 1.62064,3.97793 5.00925,6.33522 3.46227,2.28363 8.83985,2.28363 5.08291,0 8.10319,-0.95765 3.02028,-0.95765 4.86192,-1.9153 l 2.79928,8.17686 q -2.13629,1.25231 -6.48255,2.43095 -4.2726,1.17865 -10.16583,1.17865 z m 24.23592,-1.03131 v -51.05013 h 33.37042 v 8.47153 h -23.27826 v 11.71279 h 20.69997 v 8.32419 h -20.69997 v 14.07009 h 25.04623 v 8.47153 z m 43.83085,0 v -51.05013 h 8.17686 q 2.20997,2.28363 4.71459,5.30391 2.50462,2.94662 5.15658,6.40889 2.65195,3.38861 5.23024,6.99822 2.65195,3.6096 5.08291,7.14554 2.43096,3.53594 4.49359,6.77722 v -32.63378 h 9.94483 v 51.05013 h -8.39785 q -1.91531,-3.46228 -4.19893,-7.07188 -2.20996,-3.68327 -4.71459,-7.44021 -2.43096,-3.8306 -5.08291,-7.4402 -2.57829,-3.68327 -5.23024,-7.14555 -2.65196,-3.46227 -5.23025,-6.48255 v 35.58039 z m 54.9544,0 v -51.05013 h 33.37042 v 8.47153 h -23.27826 v 11.71279 h 20.69997 v 8.32419 h -20.69997 v 14.07009 h 25.04623 v 8.47153 z m -277.64481,60.00354 q -7.4402,0 -13.11244,-3.09394 -5.59857,-3.16762 -8.69251,-9.06085 -3.09395,-5.96689 -3.09395,-14.36475 0,-8.54519 3.38861,-14.43842 3.38861,-5.96689 9.13451,-9.06084 5.7459,-3.16761 12.67045,-3.16761 4.64092,0 7.95586,0.73665 3.38861,0.73665 5.5249,1.62064 2.1363,0.88398 2.94662,1.47331 l -2.94662,8.10319 q -2.28362,-1.32598 -5.45124,-2.20996 -3.16761,-0.95765 -6.85088,-0.95765 -5.30391,0 -8.83985,2.1363 -3.53593,2.13629 -5.3039,6.11422 -1.76797,3.97793 -1.76797,9.65017 0,5.30391 1.6943,9.42917 1.6943,4.0516 5.08291,6.26156 3.38861,2.20996 8.39786,2.20996 2.35729,0 3.97793,-0.14733 1.62064,-0.14733 2.57829,-0.36833 v -18.19535 h 10.09216 v 24.75157 q -1.9153,0.73666 -6.40889,1.62064 -4.41993,0.95765 -10.97615,0.95765 z m 28.21381,-0.95765 v -50.2398 q 3.53594,-0.73665 7.44021,-1.03131 3.90426,-0.36833 7.07187,-0.36833 11.27081,0 17.16404,4.12526 5.9669,4.0516 5.9669,12.44945 0,5.45124 -2.57829,8.83985 -2.57829,3.31494 -7.29288,5.15658 1.47331,1.84163 3.16762,4.27259 1.76797,2.43096 3.46227,5.23025 1.76797,2.79928 3.38861,5.7459 1.62064,2.94661 2.94661,5.81956 h -11.19714 q -1.9153,-3.53594 -4.05159,-6.99821 -2.06263,-3.53594 -4.12526,-6.70355 -2.06264,-3.16761 -3.97794,-5.45124 -0.29466,0 -0.58932,0.0737 -0.221,0 -0.44199,0 h -6.26156 v 19.07933 z m 10.09216,-27.10886 h 4.0516 q 4.41992,0 7.29287,-0.66299 2.94662,-0.73666 4.34626,-2.50462 1.47331,-1.76797 1.47331,-4.86192 0,-2.94662 -1.47331,-4.64092 -1.39964,-1.76797 -4.19893,-2.50462 -2.72562,-0.73666 -6.40889,-0.73666 -1.62064,0 -2.87295,0.14733 -1.25231,0.0737 -2.20996,0.14733 z m 35.15686,27.10886 q 3.90427,-10.90248 7.21921,-19.74232 3.31494,-8.91352 6.48255,-16.50105 3.24128,-7.6612 6.70356,-14.80675 h 9.50283 q 2.57829,5.37758 5.00925,11.04981 2.43096,5.59857 4.86192,11.7128 2.43095,6.11423 5.00924,13.11244 2.65196,6.99821 5.52491,15.17507 h -10.75515 q -0.95765,-2.94661 -2.06263,-5.81956 -1.03132,-2.94662 -1.98897,-5.89323 h -20.99464 q -1.03131,2.94661 -2.13629,5.89323 -1.03132,2.87295 -1.9153,5.81956 z m 16.94304,-19.74232 h 16.05906 q -1.17865,-3.46228 -2.35729,-6.55622 -1.17865,-3.16762 -2.28363,-5.81957 -1.03132,-2.72562 -1.9153,-4.86192 -0.88399,-2.20996 -1.54698,-3.8306 -0.58932,1.62064 -1.4733,3.8306 -0.81032,2.1363 -1.9153,4.86192 -1.03132,2.65195 -2.20997,5.81957 -1.17864,3.09394 -2.35729,6.55622 z m 40.14758,19.74232 v -50.2398 q 3.53594,-0.73665 7.58754,-1.03131 4.05159,-0.36833 7.21921,-0.36833 11.2708,0 17.16403,4.0516 5.9669,4.05159 5.9669,12.81778 0,6.04056 -2.72562,9.87116 -2.72562,3.75693 -8.02953,5.5249 -5.23024,1.69431 -12.74411,1.69431 h -4.34626 v 17.67969 z m 10.09216,-26.29854 h 4.19893 q 4.27259,0 7.21921,-0.73666 3.02028,-0.73665 4.49359,-2.57829 1.54697,-1.84163 1.54697,-5.23024 0,-3.24128 -1.54697,-5.00925 -1.54698,-1.76797 -4.34626,-2.43095 -2.72562,-0.73666 -6.26156,-0.73666 -1.54697,0 -2.94662,0.14733 -1.39964,0.0737 -2.35729,0.14733 z m 36.53798,26.29854 v -51.05012 h 10.09216 v 20.11066 h 21.14197 v -20.11066 h 10.09216 v 51.05012 h -10.09216 v -22.32061 h -21.14197 v 22.32061 z m 66.66722,1.03132 q -6.55622,0 -10.68149,-1.32598 -4.05159,-1.39964 -5.96689,-2.50462 l 2.94661,-8.02953 q 2.06263,1.17865 5.45124,2.20996 3.38861,1.03132 8.25053,1.03132 5.15657,0 7.2192,-1.62064 2.06264,-1.69431 2.06264,-4.49359 0,-2.20996 -1.25232,-3.6096 -1.17864,-1.47331 -3.6096,-2.65196 -2.43096,-1.17865 -6.11423,-2.43096 -3.53594,-1.32597 -6.77722,-3.02028 -3.16761,-1.76797 -5.15657,-4.56725 -1.98897,-2.79929 -1.98897,-7.36654 0,-4.64092 2.20996,-7.95587 2.28363,-3.31494 6.33523,-5.08291 4.12526,-1.84163 9.72383,-1.84163 4.93558,0 8.61885,1.10498 3.75694,1.10498 6.11423,2.43096 l -3.02028,7.95586 q -2.1363,-1.17865 -4.86192,-1.98897 -2.72562,-0.88398 -6.33522,-0.88398 -4.2726,0 -6.40889,1.32598 -2.06263,1.32597 -2.06263,4.19892 0,2.06263 1.25231,3.38861 1.25231,1.32598 3.38861,2.35729 2.13629,0.95765 4.78825,1.9153 5.08291,1.84164 8.47152,3.8306 3.46227,1.98897 5.23024,5.00925 1.84164,2.94662 1.84164,7.8822 0,4.64092 -2.20997,7.95586 -2.20996,3.31495 -6.62988,5.08291 -4.34626,1.69431 -10.82881,1.69431 z"
         id="path80" /><path
         style="font-family:'Ubuntu Sans';-inkscape-font-specification:'Ubuntu Sans'"
         d="m 566.264,325.80707 q 3.97793,-10.68148 7.29287,-19.44766 3.31494,-8.76619 6.48256,-16.42739 3.24127,-7.73486 6.85088,-15.17507 h 5.15658 q 2.65195,5.59857 5.08291,11.34447 2.50462,5.67224 4.93558,11.78647 2.43096,6.11422 5.00925,13.03877 2.65195,6.85088 5.59857,14.88041 h -6.26156 q -1.32598,-3.68327 -2.57829,-6.99821 -1.25231,-3.38861 -2.35729,-6.62989 h -24.30958 q -1.17865,3.24128 -2.43096,6.62989 -1.25231,3.31494 -2.50463,6.99821 z m 12.59678,-18.49001 h 20.92097 q -1.39964,-3.68327 -2.72562,-7.14555 -1.32597,-3.46227 -2.65195,-6.70355 -1.25231,-3.24128 -2.57829,-6.26156 -1.25231,-3.09394 -2.57829,-6.04056 -1.25231,2.94662 -2.57829,6.04056 -1.25231,3.02028 -2.57829,6.26156 -1.25231,3.24128 -2.57828,6.70355 -1.32598,3.46228 -2.65196,7.14555 z m 41.10526,18.49001 V 275.7146 q 2.79929,-0.73665 6.40889,-1.03131 3.60961,-0.36833 6.62989,-0.36833 10.53415,0 15.98539,4.0516 5.52491,3.97793 5.52491,11.78646 0,5.67224 -2.94662,9.06084 -2.94662,3.38861 -7.8822,4.86192 1.25231,1.54697 3.02028,4.0516 1.84164,2.43095 3.8306,5.45124 1.98897,2.94661 3.83061,6.11422 1.9153,3.16762 3.24127,6.11423 h -6.26156 q -1.98896,-3.8306 -4.49359,-7.6612 -2.43095,-3.90427 -4.78825,-7.29287 -2.35729,-3.38861 -4.19892,-5.67224 -1.03132,0.0737 -2.1363,0.14733 -1.03132,0.0737 -2.06263,0.0737 h -7.95586 v 20.40531 z m 5.74591,-25.19356 h 6.48255 q 4.64092,0 8.32419,-0.66299 3.68327,-0.73666 5.81957,-3.02028 2.20996,-2.28363 2.20996,-6.85089 0,-4.34625 -2.1363,-6.62988 -2.06263,-2.35729 -5.5249,-3.24128 -3.38861,-0.95765 -7.29288,-0.95765 -2.57829,0 -4.56725,0.221 -1.98897,0.14733 -3.31494,0.29466 z m 61.0687,26.29854 q -6.70355,0 -12.08113,-3.09394 -5.30391,-3.09395 -8.39785,-8.98718 -3.02028,-5.9669 -3.02028,-14.58575 0,-6.40889 1.9153,-11.34447 1.9153,-5.00925 5.23024,-8.39786 3.38861,-3.38861 7.6612,-5.08291 4.34626,-1.76797 9.06084,-1.76797 3.90427,0 6.77722,0.66299 2.94662,0.58932 4.86192,1.39964 1.9153,0.81032 2.79928,1.39964 l -1.84163,4.86192 q -1.84164,-1.10498 -4.78825,-2.1363 -2.87295,-1.03131 -6.99822,-1.03131 -6.04056,0 -10.23949,2.72562 -4.12526,2.65195 -6.26156,7.51387 -2.13629,4.78825 -2.13629,11.2708 0,6.48256 2.06263,11.34448 2.06263,4.78825 6.04056,7.4402 4.0516,2.65196 9.87116,2.65196 4.86192,0 8.1032,-0.88399 3.24128,-0.95765 5.00925,-1.9153 l 1.54697,4.86192 q -1.17865,0.73665 -5.15658,1.9153 -3.90426,1.17864 -10.01849,1.17864 z m 23.72032,-1.10498 v -51.05012 h 5.7459 v 21.87862 h 26.74054 v -21.87862 h 5.7459 v 51.05012 h -5.7459 v -24.23591 h -26.74054 v 24.23591 z m 51.34482,0 v -51.05012 h 5.7459 v 51.05012 z m 33.0758,0 q -2.35729,-5.23024 -4.64092,-10.46048 -2.20996,-5.23025 -4.56725,-11.12348 -2.28363,-5.9669 -4.93558,-13.11244 -2.65196,-7.21921 -5.89324,-16.35372 h 6.40889 q 2.1363,6.26156 4.12527,12.08113 2.06263,5.7459 3.97793,11.19714 1.98896,5.37757 4.05159,10.60781 2.06263,5.23025 4.2726,10.38683 2.20996,-5.08292 4.19892,-10.23949 2.06264,-5.23025 4.0516,-10.68149 1.98897,-5.45124 3.97793,-11.2708 2.06263,-5.81957 4.12526,-12.08113 h 6.11423 q -3.16761,9.13451 -5.81956,16.35372 -2.65196,7.14554 -5.00925,13.11244 -2.28363,5.89323 -4.56726,11.12348 -2.20996,5.23024 -4.56725,10.46048 z m 32.56012,0 v -51.05012 h 30.05548 v 4.93558 h -24.30958 v 16.86938 h 21.65763 v 4.86192 h -21.65763 v 19.44766 h 26.15122 v 4.93558 z"
         id="path81" /></g><g
       id="g80"><ellipse
         style="fill:url(#linearGradient32);fill-opacity:1;stroke:#3b4248;stroke-width:3.175;stroke-linecap:butt;stroke-linejoin:miter;stroke-miterlimit:0;stroke-dasharray:none;stroke-opacity:1;paint-order:stroke fill markers"
         id="ellipse30"
         ry="10.863493"
         rx="10.863"
         cy="65.559547"
         cx="6.0879879"
         inkscape:export-filename="icon.svg"
         inkscape:export-xdpi="96"
         inkscape:export-ydpi="96" /><ellipse
         style="fill:url(#linearGradient44);fill-opacity:1;stroke:#3b4248;stroke-width:3.175;stroke-linecap:butt;stroke-linejoin:miter;stroke-miterlimit:0;stroke-dasharray:none;stroke-opacity:1;paint-order:stroke fill markers"
         id="ellipse25"
         ry="7.5149226"
         rx="7.5148826"
         cy="123.63374"
         cx="6.0879688"
         inkscape:label="ellipse25" /><ellipse
         style="fill:url(#linearGradient40);fill-opacity:1;stroke:#3b4248;stroke-width:3.175;stroke-linecap:butt;stroke-linejoin:miter;stroke-miterlimit:0;stroke-dasharray:none;stroke-opacity:1;paint-order:stroke fill markers"
         id="ellipse12"
         ry="7.5149226"
         rx="7.5148826"
         cy="100.57133"
         cx="6.0879688" /><ellipse
         style="fill:url(#linearGradient42);fill-opacity:1;stroke:#3b4248;stroke-width:3.175;stroke-linecap:butt;stroke-linejoin:miter;stroke-miterlimit:0;stroke-dasharray:none;stroke-opacity:1;paint-order:stroke fill markers"
         id="ellipse13"
         ry="7.5149226"
         rx="7.5148826"
         cy="100.57133"
         cx="32.80785" /><ellipse
         style="fill:url(#linearGradient38);fill-opacity:1;stroke:#3b4248;stroke-width:3.175;stroke-linecap:butt;stroke-linejoin:miter;stroke-miterlimit:0;stroke-dasharray:none;stroke-opacity:1;paint-order:stroke fill markers"
         id="ellipse14"
         ry="7.5149226"
         rx="7.515121"
         cy="100.57133"
         cx="-20.631912" /><path
         style="fill:none;stroke:#3b4248;stroke-width:1.6;stroke-linecap:butt;stroke-linejoin:miter;stroke-dasharray:none;stroke-opacity:1"
         d="m 6.0879869,76.42304 c 0,2.910242 0,5.820484 4.5082511,7.275605 4.508251,1.455121 13.524391,1.455121 17.977701,2.772254 4.453309,1.317133 4.34361,3.951293 4.233908,6.585503"
         id="path72"
         inkscape:path-effect="#path-effect72"
         inkscape:original-d="m 6.0879869,76.42304 c 0,2.910242 0,5.820484 0,8.730726 9.0165021,0 18.0326421,0 27.0489651,0 -0.109704,2.634266 -0.219403,5.268426 -0.329105,7.902636" /><use
         x="0"
         y="0"
         xlink:href="#path72"
         id="use74"
         transform="matrix(-1,0,0,1,11.942948,0)" /><path
         style="fill:none;stroke:#3b4248;stroke-width:1.6;stroke-linecap:butt;stroke-linejoin:miter;stroke-dasharray:none;stroke-opacity:1"
         d="m 6.0879869,76.42304 -1.85e-5,16.633362"
         id="path74" /><path
         style="fill:none;stroke:#3b4248;stroke-width:1.6;stroke-linecap:butt;stroke-linejoin:miter;stroke-dasharray:none;stroke-opacity:1"
         d="m 6.0879684,108.08625 v 8.03257"
         id="path75" /></g></g></svg>
