<?xml version="1.0" encoding="UTF-8" standalone="no"?>
<!-- Created with Inkscape (http://www.inkscape.org/) -->

<svg
   width="42.236584mm"
   height="12.589631mm"
   viewBox="0 0 42.236584 12.589631"
   version="1.1"
   id="svg5"
   xml:space="preserve"
   xmlns:xlink="http://www.w3.org/1999/xlink"
   xmlns="http://www.w3.org/2000/svg"
   xmlns:svg="http://www.w3.org/2000/svg"><defs
     id="defs2"><linearGradient
       id="linearGradient86"><stop
         style="stop-color:#d6a99d;stop-opacity:1;"
         offset="0"
         id="stop85" /><stop
         style="stop-color:#d79874;stop-opacity:1;"
         offset="1"
         id="stop86" /></linearGradient><linearGradient
       id="linearGradient43"><stop
         style="stop-color:#d6dac8;stop-opacity:1;"
         offset="0"
         id="stop43" /><stop
         style="stop-color:#b0c1b1;stop-opacity:1;"
         offset="1"
         id="stop44" /></linearGradient><linearGradient
       id="linearGradient39"><stop
         style="stop-color:#e0d7b8;stop-opacity:1;"
         offset="0"
         id="stop39" /><stop
         style="stop-color:#ebd08d;stop-opacity:1;"
         offset="1"
         id="stop40" /></linearGradient><linearGradient
       xlink:href="#linearGradient43"
       id="linearGradient82"
       gradientUnits="userSpaceOnUse"
       x1="-3.0144136"
       y1="123.63374"
       x2="15.190351"
       y2="123.63374"
       gradientTransform="matrix(0.69155398,0,0,0.69155398,-84.209581,22.549077)" /><linearGradient
       xlink:href="#linearGradient39"
       id="linearGradient83"
       gradientUnits="userSpaceOnUse"
       x1="-3.0144136"
       y1="100.57133"
       x2="15.190351"
       y2="100.57133"
       gradientTransform="matrix(0.69155398,0,0,0.69155398,-99.028348,38.497982)" /><linearGradient
       xlink:href="#linearGradient86"
       id="linearGradient85"
       gradientUnits="userSpaceOnUse"
       x1="-29.734533"
       y1="100.57133"
       x2="-11.529291"
       y2="100.57133"
       gradientTransform="matrix(0.69155398,0,0,0.69155398,-95.378174,38.497982)" /></defs><g
     id="layer5"
     transform="translate(115.9412,-101.75368)"><path
       style="fill:none;stroke:#3b4248;stroke-width:1.6;stroke-linecap:butt;stroke-linejoin:miter;stroke-dasharray:none;stroke-opacity:1"
       d="m 6.0879869,76.42304 c 0,2.910242 0,5.820484 4.5082511,7.275605 4.508251,1.455121 13.524391,1.455121 17.977701,2.772254 4.453309,1.317133 4.34361,3.951293 4.233908,6.585503"
       id="path72-4"
       transform="matrix(0.69155398,0,0,0.69155398,-116.57958,49.820675)" /><path
       style="fill:none;stroke:#3b4248;stroke-width:1.6;stroke-linecap:butt;stroke-linejoin:miter;stroke-dasharray:none;stroke-opacity:1"
       d="m 6.0879869,76.42304 c 0,2.910242 0,5.820484 4.5082511,7.275605 4.508251,1.455121 13.524391,1.455121 17.977701,2.772254 4.453309,1.317133 4.34361,3.951293 4.233908,6.585503"
       id="path72-4-3"
       transform="matrix(0.69155398,0,0,0.69155398,-100.31202,49.203468)" /><path
       id="ellipse25-3"
       style="fill:url(#linearGradient82);stroke:#3b4248;stroke-width:2.19568;stroke-miterlimit:0;paint-order:stroke fill markers"
       d="m -74.802473,108.04849 a 5.1969471,5.1969748 0 0 1 -5.196947,5.19698 5.1969471,5.1969748 0 0 1 -5.196947,-5.19698 5.1969471,5.1969748 0 0 1 5.196947,-5.19697 5.1969471,5.1969748 0 0 1 5.196947,5.19697 z" /><path
       id="ellipse12-8"
       style="fill:url(#linearGradient83);stroke:#3b4248;stroke-width:2.19568;stroke-miterlimit:0;paint-order:stroke fill markers"
       d="m -89.621237,108.04849 a 5.1969471,5.1969748 0 0 1 -5.196947,5.19698 5.1969471,5.1969748 0 0 1 -5.196946,-5.19698 5.1969471,5.1969748 0 0 1 5.196946,-5.19697 5.1969471,5.1969748 0 0 1 5.196947,5.19697 z" /><path
       id="ellipse14-3"
       style="fill:url(#linearGradient85);stroke:#3b4248;stroke-width:2.19568;stroke-miterlimit:0;paint-order:stroke fill markers"
       d="m -104.44915,108.04849 a 5.1971121,5.1969748 0 0 1 -5.19711,5.19698 5.1971121,5.1969748 0 0 1 -5.19712,-5.19698 5.1971121,5.1969748 0 0 1 5.19712,-5.19697 5.1971121,5.1969748 0 0 1 5.19711,5.19697 z" /><path
       style="font-weight:bold;font-size:26.3091px;line-height:0.7;font-family:'Ubuntu Sans';-inkscape-font-specification:'Ubuntu Sans Bold';letter-spacing:0px;white-space:pre;fill:#3b4248;stroke-width:5.7;stroke-miterlimit:0;paint-order:stroke fill markers"
       d="m 571.52582,174.3613 q -0.99975,0 -2.0258,-0.18416 -0.99975,-0.15786 -1.84164,-0.39464 -0.81558,-0.23678 -1.23653,-0.44725 l 0.68404,-2.86769 q 0.60511,0.26309 1.65747,0.6051 1.07868,0.34202 2.65722,0.34202 1.28915,0 2.13104,-0.34202 0.84189,-0.34201 1.21022,-0.97343 0.39463,-0.65773 0.39463,-1.49962 0,-1.10498 -0.5788,-1.71009 -0.5788,-0.63142 -1.55223,-0.89451 -0.94713,-0.26309 -2.13104,-0.26309 h -1.23653 v -2.76246 h 1.49962 q 0.81558,0 1.55224,-0.21047 0.76296,-0.23678 1.23653,-0.76296 0.47356,-0.5525 0.47356,-1.52593 0,-0.78927 -0.39464,-1.26284 -0.36832,-0.49987 -0.97343,-0.73665 -0.60511,-0.23679 -1.28915,-0.23679 -1.18391,0 -2.10473,0.36833 -0.92082,0.34202 -1.65747,0.81558 l -1.23653,-2.52567 q 0.76297,-0.49987 2.07842,-1.02605 1.34176,-0.5525 3.02555,-0.5525 2.07842,0 3.39387,0.65773 1.34176,0.65773 1.97318,1.78902 0.63142,1.13129 0.63142,2.57829 0,1.18391 -0.65773,2.20997 -0.65772,0.99974 -1.7364,1.52592 0.94713,0.34202 1.65748,0.97344 0.73665,0.63142 1.13129,1.52593 0.39463,0.89451 0.39463,2.07842 0,1.63116 -0.76296,2.94662 -0.76296,1.28914 -2.34151,2.0258 -1.55224,0.73665 -4.02529,0.73665 z m 16.259,-0.18416 q -1.10498,0 -2.52567,-0.10524 -1.42069,-0.0789 -2.73615,-0.36833 v -17.70602 q 1.31546,-0.26309 2.78876,-0.36833 1.47331,-0.10523 2.5783,-0.10523 3.07816,0 5.39336,0.97343 2.3152,0.97344 3.60435,3.02555 1.28914,2.05211 1.28914,5.31444 0,3.13078 -1.28914,5.2092 -1.26284,2.07842 -3.60435,3.10447 -2.34151,1.02606 -5.4986,1.02606 z m 0.21047,-3.07817 q 3.26233,0 4.84088,-1.65747 1.60485,-1.68378 1.60485,-4.60409 0,-3.02555 -1.55223,-4.6304 -1.52593,-1.60486 -4.78826,-1.60486 -0.65773,0 -1.1576,0.0263 -0.47356,0.0263 -0.81558,0.0789 v 12.31266 q 0.26309,0.0263 0.68403,0.0526 0.44726,0.0263 1.18391,0.0263 z"
       id="text24-3"
       transform="matrix(0.23182592,0,0,0.23182592,-244.79693,69.834905)"
       aria-label="3D " /><path
       style="font-weight:bold;font-size:26.3091px;line-height:0.8;font-family:'Ubuntu Sans';-inkscape-font-specification:'Ubuntu Sans Bold';letter-spacing:0px;white-space:pre;fill:#3b4248;stroke-width:5.7;stroke-miterlimit:0;paint-order:stroke fill markers"
       d="m 572.42033,175.65045 q -2.34151,0 -3.81482,-0.47357 -1.447,-0.49987 -2.13104,-0.8945 l 1.05237,-2.8677 q 0.73665,0.42095 1.94687,0.78928 1.21022,0.36832 2.94662,0.36832 1.84163,0 2.57829,-0.5788 0.73665,-0.60511 0.73665,-1.60485 0,-0.78927 -0.44725,-1.28915 -0.42095,-0.52618 -1.28915,-0.94712 -0.8682,-0.42095 -2.18365,-0.8682 -1.26284,-0.47357 -2.42044,-1.07868 -1.13129,-0.63142 -1.84164,-1.63116 -0.71034,-0.99975 -0.71034,-2.63091 0,-1.65748 0.78927,-2.84138 0.81558,-1.18391 2.26258,-1.81533 1.47331,-0.65773 3.47281,-0.65773 1.7627,0 3.07816,0.39464 1.34176,0.39463 2.18366,0.8682 l -1.07868,2.84138 q -0.76296,-0.42095 -1.7364,-0.71035 -0.97344,-0.31571 -2.26258,-0.31571 -1.52593,0 -2.28889,0.47357 -0.73666,0.47356 -0.73666,1.49962 0,0.73665 0.44726,1.21022 0.44725,0.47356 1.21022,0.84189 0.76296,0.34201 1.71009,0.68403 1.81533,0.65773 3.02554,1.36808 1.23653,0.71034 1.86795,1.78902 0.65773,1.05236 0.65773,2.81507 0,1.65747 -0.78928,2.84138 -0.78927,1.18391 -2.36781,1.81533 -1.55224,0.60511 -3.86744,0.60511 z m 18.33746,-0.0263 q -2.65722,0 -4.68302,-1.10498 -1.99949,-1.13129 -3.10447,-3.23602 -1.10498,-2.13104 -1.10498,-5.13028 0,-3.05185 1.21021,-5.15658 1.21022,-2.13104 3.26233,-3.23602 2.05211,-1.13129 4.52517,-1.13129 1.65747,0 2.84138,0.26309 1.21022,0.26309 1.97318,0.5788 0.76297,0.31571 1.05237,0.52618 l -1.05237,2.894 q -0.81558,-0.47356 -1.94687,-0.78927 -1.13129,-0.34202 -2.44675,-0.34202 -1.89425,0 -3.15709,0.76297 -1.26284,0.76296 -1.89425,2.18365 -0.63142,1.42069 -0.63142,3.44649 0,1.89426 0.60511,3.36757 0.60511,1.447 1.81532,2.23627 1.21022,0.78927 2.99924,0.78927 0.84189,0 1.42069,-0.0526 0.5788,-0.0526 0.92082,-0.13155 v -6.49835 h 3.60435 v 8.83986 q -0.68404,0.26309 -2.28889,0.5788 -1.57855,0.34202 -3.92006,0.34202 z"
       id="text86"
       transform="matrix(0.23182592,0,0,0.23182592,-229.6761,69.532997)"
       aria-label="SG" /><path
       style="font-size:26.3091px;line-height:0.8;font-family:'Ubuntu Sans';-inkscape-font-specification:'Ubuntu Sans Bold';letter-spacing:0px;white-space:pre;fill:#3b4248;stroke-width:5.7;stroke-miterlimit:0;paint-order:stroke fill markers"
       d="m 565.79043,175.28212 q 1.4207,-3.81482 2.60461,-6.9456 1.18391,-3.13078 2.3152,-5.86693 1.1576,-2.76246 2.44674,-5.41967 h 1.84164 q 0.94713,1.99949 1.81533,4.0516 0.89451,2.0258 1.76271,4.20945 0.8682,2.18366 1.78902,4.65671 0.94712,2.44675 1.99949,5.31444 h -2.23628 q -0.47356,-1.31545 -0.92081,-2.49936 -0.44726,-1.21022 -0.8419,-2.36782 h -8.682 q -0.42094,1.1576 -0.8682,2.36782 -0.44725,1.18391 -0.89451,2.49936 z m 4.49886,-6.60358 h 7.47178 q -0.49987,-1.31546 -0.97343,-2.55199 -0.47357,-1.23652 -0.94713,-2.39412 -0.44725,-1.1576 -0.92082,-2.23628 -0.44725,-1.10498 -0.92082,-2.15734 -0.44725,1.05236 -0.92081,2.15734 -0.44726,1.07868 -0.92082,2.23628 -0.44726,1.1576 -0.92082,2.39412 -0.47357,1.23653 -0.94713,2.55199 z m 14.68047,6.60358 v -17.89019 q 0.99974,-0.26309 2.28889,-0.36832 1.28915,-0.13155 2.36782,-0.13155 3.7622,0 5.70907,1.447 1.97319,1.42069 1.97319,4.20946 0,2.0258 -1.05237,3.23602 -1.05236,1.21021 -2.81507,1.7364 0.44725,0.55249 1.07867,1.447 0.65773,0.8682 1.36807,1.94687 0.71035,1.05236 1.36808,2.18366 0.68403,1.13129 1.1576,2.18365 h -2.23628 q -0.71034,-1.36807 -1.60485,-2.73615 -0.8682,-1.39438 -1.71009,-2.6046 -0.84189,-1.21021 -1.49962,-2.0258 -0.36833,0.0263 -0.76296,0.0526 -0.36833,0.0263 -0.73666,0.0263 h -2.84138 v 7.28762 z m 2.05211,-8.99771 h 2.3152 q 1.65747,0 2.97293,-0.23678 1.31545,-0.26309 2.07842,-1.07868 0.78927,-0.81558 0.78927,-2.44674 0,-1.55224 -0.76297,-2.36782 -0.73665,-0.84189 -1.97318,-1.1576 -1.21022,-0.34202 -2.6046,-0.34202 -0.92082,0 -1.63116,0.0789 -0.71035,0.0526 -1.18391,0.10523 z"
       id="text87"
       transform="matrix(0.23182592,0,0,0.23182592,-214.94576,69.545194)"
       aria-label="AR" /></g></svg>
